<svg xmlns="http://www.w3.org/2000/svg" viewBox="0 0 1200 600">
  <style>
    .shelf { fill: #C4952A; }
    .book { stroke: #0A1628; stroke-width: 1.5; }
    .figure { fill: #0066FF; }
    .title { font-family: Inter, sans-serif; font-size: 26px; font-weight: 700; fill: #0A1628; }
    .sub { font-family: Inter, sans-serif; font-size: 18px; fill: #6B7280; }
  </style>
  <g transform="translate(80,80)">
    <rect x="0" y="0" width="380" height="340" fill="#f5f8fa" stroke="#e8e8e8"/>
    <rect x="0" y="80" width="380" height="4" class="shelf"/>
    <rect x="0" y="180" width="380" height="4" class="shelf"/>
    <rect x="0" y="280" width="380" height="4" class="shelf"/>
    <rect x="20" y="20" width="30" height="60" fill="#0066FF" class="book"/>
    <rect x="54" y="20" width="30" height="60" fill="#3B82B8" class="book"/>
    <rect x="88" y="20" width="24" height="60" fill="#C4952A" class="book"/>
    <rect x="116" y="20" width="30" height="60" fill="#0A1628" class="book"/>
    <rect x="150" y="20" width="28" height="60" fill="#0066FF" class="book"/>
    <rect x="182" y="20" width="30" height="60" fill="#3B82B8" class="book"/>
    <rect x="216" y="20" width="26" height="60" fill="#C4952A" class="book"/>
    <rect x="246" y="20" width="30" height="60" fill="#0A1628" class="book"/>
    <rect x="280" y="20" width="28" height="60" fill="#0066FF" class="book"/>
    <rect x="312" y="20" width="30" height="60" fill="#3B82B8" class="book"/>
    <rect x="20" y="120" width="30" height="60" fill="#3B82B8" class="book"/>
    <rect x="54" y="120" width="28" height="60" fill="#C4952A" class="book"/>
    <rect x="86" y="120" width="30" height="60" fill="#0A1628" class="book"/>
    <rect x="120" y="120" width="28" height="60" fill="#0066FF" class="book"/>
    <rect x="152" y="120" width="30" height="60" fill="#3B82B8" class="book"/>
    <rect x="186" y="120" width="24" height="60" fill="#C4952A" class="book"/>
    <rect x="214" y="120" width="30" height="60" fill="#0A1628" class="book"/>
    <rect x="248" y="120" width="28" height="60" fill="#0066FF" class="book"/>
    <rect x="280" y="120" width="30" height="60" fill="#3B82B8" class="book"/>
    <rect x="314" y="120" width="28" height="60" fill="#C4952A" class="book"/>
    <rect x="20" y="220" width="28" height="60" fill="#0A1628" class="book"/>
    <rect x="52" y="220" width="30" height="60" fill="#0066FF" class="book"/>
    <rect x="86" y="220" width="30" height="60" fill="#3B82B8" class="book"/>
    <rect x="120" y="220" width="28" height="60" fill="#C4952A" class="book"/>
    <rect x="152" y="220" width="30" height="60" fill="#0A1628" class="book"/>
    <rect x="186" y="220" width="30" height="60" fill="#0066FF" class="book"/>
    <rect x="220" y="220" width="28" height="60" fill="#3B82B8" class="book"/>
    <rect x="252" y="220" width="30" height="60" fill="#C4952A" class="book"/>
    <rect x="286" y="220" width="30" height="60" fill="#0A1628" class="book"/>
    <rect x="320" y="220" width="28" height="60" fill="#0066FF" class="book"/>
  </g>
  <g transform="translate(540,180)">
    <circle cx="60" cy="40" r="32" class="figure"/>
    <rect x="30" y="75" width="60" height="90" rx="8" class="figure"/>
    <rect x="12" y="90" width="20" height="40" rx="4" class="figure"/>
    <rect x="86" y="90" width="20" height="40" rx="4" class="figure"/>
  </g>
  <g transform="translate(720,220)">
    <rect x="0" y="40" width="280" height="100" rx="12" fill="#0A1628"/>
    <rect x="20" y="0" width="240" height="50" rx="6" fill="#fff" stroke="#e8e8e8"/>
    <line x1="40" y1="20" x2="240" y2="20" stroke="#6B7280" stroke-width="2"/>
    <line x1="40" y1="30" x2="200" y2="30" stroke="#6B7280" stroke-width="2"/>
    <g fill="#C4952A">
      <circle cx="40" cy="90" r="8"/>
      <circle cx="70" cy="90" r="8"/>
      <circle cx="100" cy="90" r="8"/>
      <circle cx="130" cy="90" r="8"/>
      <circle cx="160" cy="90" r="8"/>
      <circle cx="190" cy="90" r="8"/>
      <circle cx="220" cy="90" r="8"/>
      <circle cx="250" cy="90" r="8"/>
      <circle cx="55" cy="115" r="8"/>
      <circle cx="85" cy="115" r="8"/>
      <circle cx="115" cy="115" r="8"/>
      <circle cx="145" cy="115" r="8"/>
      <circle cx="175" cy="115" r="8"/>
      <circle cx="205" cy="115" r="8"/>
      <circle cx="235" cy="115" r="8"/>
    </g>
  </g>
  <text class="title" x="220" y="470" text-anchor="middle">Biblioteca</text>
  <text class="sub" x="220" y="500" text-anchor="middle">Las fuentes (PDFs, DBs, APIs)</text>
  <text class="title" x="600" y="470" text-anchor="middle">Bibliotecario</text>
  <text class="sub" x="600" y="500" text-anchor="middle">Retrieval + reranking</text>
  <text class="title" x="860" y="470" text-anchor="middle">Máquina de escribir</text>
  <text class="sub" x="860" y="500" text-anchor="middle">LLM que redacta la respuesta</text>
</svg>
